<svg width="124" height="133" viewBox="0 0 124 133" fill="none" xmlns="http://www.w3.org/2000/svg">
<rect x="1" y="1" width="122" height="131" fill="none" stroke="#C0C0C0" stroke-width="2"/>
<path stroke-width="1.5" d="M49 39H42V20H83V39H76M76 39V27H49V51H22V76H35V67V102H22V114H49V102H76V114H103V102H90V76M76 39V51H103V76H90M90 67V76M51.5 30.5H58.5M66.5 30.5H73.5M55.5 44C59 50 66.5 50 69.5 44M61 41C61.5 42 63.5 42 64 41M55.5 36.5H57.5M67.5 36.5H69.5M51.5 42.5H53.5M71.5 42.5H73.5M54 35.5V38.5H59V37V35.5H54ZM66 35.5H71V38.5H66V35.5Z" stroke="currentColor"/>
</svg>
