<svg width="124" height="133" viewBox="0 0 124 133" fill="none" xmlns="http://www.w3.org/2000/svg">
<rect x="1" y="1" width="122" height="131" fill="none" stroke="currentColor" stroke-width="2"/>
<path stroke-width="1.5" d="M48 39H41V20H82V39H75M75 39V27H48V51H21V76H34V67V102H21V114H48V102H75V114H102V102H89V76M75 39V51H102V76H89M89 67V76M53 32L57 31M66 31L70 32M55.5 49.5C59.5 46 63.5 46 67.5 49.5M60 41C60.5 42 62.5 42 63 41M54.5 37H55.5H56.5M66.5 37H68.5M53 35V39H58V37V35H53ZM65 35H70V39H65V35Z" stroke="currentColor"/>
</svg>
