<svg width="1241" height="145" viewBox="0 0 1241 145" fill="none" xmlns="http://www.w3.org/2000/svg">
<rect width="1241" height="145" fill="white"/>
<rect x="8" y="7" width="122" height="131" fill="white" stroke="#C0C0C0" stroke-width="2"/>
<path d="M56 44H49V25H89.982V44H83M83 44V32H56V56H29V81H42V72V107H29V119H56V107H83V119H110V107H97V81M83 44V56H110V81H97M97 72V81M61 37L65 35M74 35L78 37M62.5 43H64.5M74.5 43H76.5M68 46C68.5 47 70.5 47 71 46M63 58C67.5 52.5 72 53 76 58M61 40V44H66V40H61ZM73 40V44H78V40H73Z" stroke="black"/>
<rect x="146" y="7" width="122" height="131" fill="white" stroke="#C0C0C0" stroke-width="2"/>
<path d="M193 45H186V26H227V45H220M220 45V33H193V57H166V82H179V73V108H166V120H193V108H220V120H247V108H234V82M220 45V57H247V82H234M234 73V82M198 38L202 36M211 36L215 38M200 57C203 53 210 53 213 57M205 47C205.5 48 207.5 48 208 47M199.5 44H201.5M211.5 44H213.5M198 41V45H203V43V41H198ZM210 41H215V45H210V41Z" stroke="black"/>
<rect x="284" y="7" width="122" height="131" fill="white" stroke="#C0C0C0" stroke-width="2"/>
<path d="M331 45H324V26H365V45H358M358 45V33H331V57H304V82H317V73V108H304V120H331V108H358V120H385V108H372V82M358 45V57H385V82H372M372 73V82M336 38L340 37M349 37L353 38M338.5 55.5C342.5 52 346.5 52 350.5 55.5M343 47C343.5 48 345.5 48 346 47M337.5 43H338.5H339.5M349.5 43H351.5M336 41V45H341V43V41H336ZM348 41H353V45H348V41Z" stroke="black"/>
<rect x="422" y="7" width="122" height="131" fill="white" stroke="#C0C0C0" stroke-width="2"/>
<path d="M470 45H463V26H504V45H497M497 45V33H470V57H443V82H456V73V108H443V120H470V108H497V120H524V108H511V82M497 45V57H524V82H511M511 73V82M475 38H479M488 38H492M478 54C482 52.5 485 52.5 489 54M482 47C482.5 48 484.5 48 485 47M476.5 43H477.5H478.5M488.5 43H490.5M475 41V45H480V43V41H475ZM487 41H492V45H487V41Z" stroke="black"/>
<rect x="560" y="7" width="122" height="131" fill="white" stroke="#C0C0C0" stroke-width="2"/>
<path d="M608 45H601V26H642V45H635M635 45V33H608V57H581V82H594V73V108H581V120H608V108H635V120H662V108H649V82M635 45V57H662V82H649M649 73V82M613 38H617M626 38H630M616 54C622 54 623 54 628 54M620 47C620.5 48 622.5 48 623 47M614.5 43H615.5H616.5M626.5 43H628.5M613 41V45H618V43V41H613ZM625 41H630V45H625V41Z" stroke="black"/>
<rect x="698" y="7" width="122" height="131" fill="white" stroke="#C0C0C0" stroke-width="2"/>
<path d="M745 45H738V26H779V45H772M772 45V33H745V57H718V82H731V73V108H718V120H745V108H772V120H799V108H786V82M772 45V57H799V82H786M786 73V82M750 38H754M763 38H767M752 53C756 54.5 760 54.5 764 53M757 47C757.5 48 759.5 48 760 47M751.5 44H753.5M763.5 44H765.5M750 41V45H755V43V41H750ZM762 41H767V45H762V41Z" stroke="black"/>
<rect x="836" y="7" width="122" height="131" fill="white" stroke="#C0C0C0" stroke-width="2"/>
<path d="M883 44H876V25H917V44H910M910 44V32H883V56H856V81H869V72V107H856V119H883V107H910V119H937V107H924V81M910 44V56H937V81H924M924 72V81M886.5 36.5H892.5M900.5 36.5H906.5M889.5 50C894 53.5 899 53.5 903.5 50M895 46C895.5 47 897.5 47 898 46M888 40.5V43.5H893V42V40.5H888ZM900 40.5H905V43.5H900V40.5ZM890 41.5V42.5H891V41.5H890ZM902 41.5V42.5H903V41.5H902Z" stroke="black"/>
<rect x="974" y="7" width="122" height="131" fill="white" stroke="#C0C0C0" stroke-width="2"/>
<path d="M1022 44H1015V25H1056V44H1049M1049 44V32H1022V56H995V81H1008V72V107H995V119H1022V107H1049V119H1076V107H1063V81M1049 44V56H1076V81H1063M1063 72V81M1025.5 35.5H1031.5M1039.5 35.5H1045.5M1028.5 49C1032.5 53.5 1038.5 53.5 1042.5 49M1034 46C1034.5 47 1036.5 47 1037 46M1028.5 41.5H1030.5M1040.5 41.5H1042.5M1027 40.5V43.5H1032V42V40.5H1027ZM1039 40.5H1044V43.5H1039V40.5Z" stroke="black"/>
<rect x="1112" y="6" width="122" height="131" fill="white" stroke="#C0C0C0" stroke-width="2"/>
<path d="M1160 44H1153V25H1194V44H1187M1187 44V32H1160V56H1133V81H1146V72V107H1133V119H1160V107H1187V119H1214V107H1201V81M1187 44V56H1214V81H1201M1201 72V81M1162.5 35.5H1169.5M1177.5 35.5H1184.5M1166.5 49C1170 55 1177.5 55 1180.5 49M1172 46C1172.5 47 1174.5 47 1175 46M1166.5 41.5H1168.5M1178.5 41.5H1180.5M1162.5 47.5H1164.5M1182.5 47.5H1184.5M1165 40.5V43.5H1170V42V40.5H1165ZM1177 40.5H1182V43.5H1177V40.5Z" stroke="black"/>
</svg>
