<svg width="124" height="133" viewBox="0 0 124 133" fill="none" xmlns="http://www.w3.org/2000/svg">
<rect x="1" y="1" width="122" height="131" fill="white" stroke="#C0C0C0" stroke-width="2"/>
<path d="M75 39H82V20H41V39H48M48 39V27H75V51H102V76H89V66.8467V102H102V114H75V102H48.0309L48 114H21V102H34V76M48 39V51H21V76H34M34 66.824V76M54.5 46H68.5M50.5 77.5C51.2903 81.0126 52.3138 82.3958 55.5 83.5M64.5 63.5C68.5 61.5 72.5 66.5 72.5 69.5M52.5 33H58.5M64.5 33H70.5M65 37V39H70V37M65 37V35.5M65 37H70M70 35.5V37M66.5 38H68.5M53 35.5V39H58V35.5M57.5 37H53.5M54.5 38H56.5M60 40.5V42H63V40.5M56 79V76.5H57V75H58V73H57V71H58V70H60V69H61V68H62V67H64V68L66 70H67V72L66 73H65L64 74V75V77H63L62 76H61L58 79H56Z" stroke="black"/>
</svg>
