<svg width="124" height="133" viewBox="0 0 124 133" fill="none" xmlns="http://www.w3.org/2000/svg">
<path stroke-width="1.5" d="M75.5 35H82.5V16H41.5V35H48.5M48.5 35V23H75.5V47H102.5V72H89.5V62.5V98H102.5V110H75.5V98H48.5V110H21.5V98H34.5V72M48.5 35V47H21.5V72H34.5M34.5 62.5V72M53 27H59M65 27H71M56.5 31H54.5V34H58.5V31H56.5ZM56.5 31V32.5M67.5 31H65.5V34H69.5V31H67.5ZM67.5 31V32.5M60.5 35.5V38H63.5V35.5M55 42H69M67.1425 71.2532C66.0301 70.8681 64.6448 70.4553 63 70C61.4243 75.7391 61.9923 77.6229 65.5176 76M67.1425 71.2532C70.561 72.4363 71.4037 73.3572 69.2879 74.4433M67.1425 71.2532C73.5 63.5 70.0632 64.4225 66.5 67C54 59 65.5 67.5 57.5 69C53.0674 67.872 56.5259 69.3252 60 70.5C58.804 74.7455 59.1782 75.7702 62.5 72M69.2879 74.4433C68.6398 74.7759 67.7142 75.1241 66.5 75.5C66.15 75.6928 65.8227 75.8595 65.5176 76M69.2879 74.4433C70 78 69 78.5 65.5176 76M75 52.5C77.238 53.2896 78.0336 53.9917 79 55.5M78 50.5C79.6916 51.3322 80.5602 52.009 82 53.5M84 58.5C82.0721 62.0283 80.7638 63.5252 78 65.5M80.5 78.5C82.068 81.564 81.6821 82.7002 80.5 84.5M78 87.5C80.0925 89.093 80.9642 89.9755 82 91.5M69.2879 89.5C72.658 91.7683 73.958 91.6267 75.5 89.5M39 70.5C38.8215 77.6339 39.862 80.1162 44 81.5M50 51.5C52.0667 49.5418 53.5691 48.8505 57 48.5M107 107.5C106.33 111.776 105.17 113.883 100 116.5M23 42.5C18.8309 44.8206 17.53 46.7013 16 50.5M37 78.5C37.5866 81.06 38.15 82.0951 40 82.5M52.5 77C53.5 99 60.5 98 64 80C71.088 92.0576 81.5 87.5 74.5 75.5C81.9406 71.9363 80.8578 69.8986 75 67.5C78 55 75.8749 53.9358 66.5 62C54 47.5 47.5 51 54.5 65C39.2439 75.5181 38.0854 78.4332 52.5 77Z" stroke="currentColor"/>
</svg>
