<svg width="124" height="133" viewBox="0 0 124 133" fill="none" xmlns="http://www.w3.org/2000/svg">
<rect x="1" y="1" width="122" height="131" fill="none" stroke="#C0C0C0" stroke-width="2"/>
<path stroke-width="1.5" d="M75.5 37.5H82.5V18.5H41.5V37.5H48.5M48.5 37.5V25.5H75.5V49.5H102.5V74.5H89.5V65M48.5 37.5V49.5H21.5V74.5H34.5M89.5 65V100.5H102.5V112.5H75.5V100.5H48.5V112.5H21.5V100.5H34.5V74.5M89.5 65V69.5M34.5 65V74.5M56.5 34V35M67.5 34V35M60.5 38V40.5H63.5V38M55 44.5H69M53 26.5H60M64 26.5H71M59 47C56.6036 47.5419 55.6122 48.1117 55 50M41 14C38.8393 16 38.2067 17.3168 38 20M37 12C34.6237 14.236 33.7127 15.7498 33 19M82 12C85.7801 12.5504 87.227 13.5165 88 17M85 10C88.3142 10.6916 89.2286 11.6819 90 14M18.5 55V66M15.5 58V66M17 112C17.6365 116.424 18.756 118.15 23 119M14 115C14.9956 119.353 16.2996 120.891 20 122M109.5 54V65M106.5 55V67M98 73C98.6235 76.7831 98.504 78.5994 97 81M95.5 79C95.7428 81.9138 95.1246 82.8395 93.5 84M82 97C84.6765 96.5496 85.8239 95.6639 87 92.5M84 91C83.2057 92.7811 82.4906 93.0646 81 93M89 95C87.6209 97.3931 86.6456 98.4416 84 99M73 104C70.5808 106.283 68.9357 107.109 65 107M71 108C68.9984 109.887 67.6974 110.473 65 110.5M41.5 76C40.7989 77.9523 40.7192 79.0479 41.5 81M38.5 76C37.5585 77.9521 37.587 79.0469 38.5 81M43 60C40.6461 61.9176 39.8423 63.2711 39 66M41 58C38.7241 59.5407 37.8308 60.6275 37 63M44.5 92C45.7962 95.9651 48.0908 97.0078 56 96M44 95.5C46.5268 98.6154 49.2915 99.0292 55 99M90 55C95.5569 59.473 95.3119 63.1921 93 70.5M91.5 52.5C97.7363 55.7201 99.2299 59.2741 98.5 68.5M76 58.5C106 29.5 101.5 31.5 84.5 65.5C93 74.5 95 74 82 73.5C111 107 111 100.5 71.5 84.5C81.5 103 79 100 66.5 87.5C61 123 67.0001 126 54.5 88.5C5.50007 99 16.5001 104 48.5 79.5C33.5001 70 37 73 48.5 62.5C23.5 39.4997 20 39.9997 63.5 58.5C64.1916 54.9038 64.2327 52.2641 64.2585 50.6128L64.2602 50.5M64.2602 50.5C64.3259 46.3381 64.3867 48.8206 75.5 58.5M64.2602 50.5C62.492 50.5346 61.678 50.9113 60 51.5M67 50.5C71.0415 50.2755 72.6047 50.5705 74 52M57.5 106.5C58.2384 106.968 58.6785 107.201 60 107M58.5 73C51 69 51 68 60.5 69.5C59.5 65 58.5 64.5 63.5 66.5M58.5 73C51.6976 78.5392 52.1569 80.5126 58.1405 80.4837M58.5 73C58.5 76.3602 58.2996 78.8519 58.1405 80.4837M63.5 66.5C64.8816 65.5547 66.0411 64.7681 67 64.1339M63.5 66.5C63.5 62 64.7792 60.1197 67 64.1339M67 64.1339C72.6352 60.4072 71.3456 61.9453 67.5 67.5C85 66.5 85 67.5 72.5 75.5C74.5 83 73.5 84 68.5 79.5C64.8287 80.011 61.7634 80.3521 59.3821 80.4529M58.1405 80.4837C58.531 80.4818 58.945 80.4714 59.3821 80.4529M58.1405 80.4837C57.8357 83.6103 57.6826 83.5798 59.3821 80.4529M59.3821 80.4529C60.2271 78.8982 61.5301 76.5781 63.5 73.5C71 77 71 77.5 67 68M54.5 32.5V36.5H58.5V32.5H54.5ZM65.5 32.5V36.5H69.5V32.5H65.5ZM62.5 69.5H63.5V70.5V71.5H62.5H61.5V70.5H62.5V69.5Z" stroke="currentColor"/>
</svg>
