<svg width="124" height="133" viewBox="0 0 124 133" fill="none" xmlns="http://www.w3.org/2000/svg">
<rect x="1" y="1" width="122" height="131" fill="white" stroke="#C0C0C0" stroke-width="2"/>
<path d="M76 39H83V20H42V39H49M49 39V27H76V51H103V76H90V66.8467V102H103V114H76V102H49.0309L49 114H22V102H35V76M49 39V51H22V76H35M35 66.824V76M53.5 33H59.5M65.5 33H71.5M71 35.5V38M66 35.5V38M59 35.5V38M54 35.5V38M61 40.5V42H64V40.5M55.5 46H69.5M65.5 80.5C67.6759 80.6612 68.5161 79.927 69.5 77.5M54 38V39H59V38M54 38H59M66 38V39H71V38M66 38H71M62.5 69V70H65V73H66V76H63V75H61V74H60V73H59V72H60H61V69H62.5Z" stroke="black"/>
</svg>
