<svg width="1241" height="145" viewBox="0 0 1241 145" fill="none" xmlns="http://www.w3.org/2000/svg">
<rect width="1241" height="145" fill="none"/>
<rect x="698" y="7" width="122" height="131" fill="none" stroke="#C0C0C0" stroke-width="2"/>
<path stroke-width="1.5" d="M773 44H780V25H739V44H746M746 44V32H773V56H800V81H787V71.5V107H800V119H773V107H746V119H719V107H732V81M746 44V56H719V81H732M732 71.5V81M750.5 37H756.5M762.5 37H768.5M758 44.5V47H761V44.5M754 41.5V42.5M765 41.5V42.5M752.5 51H766.5M745.5 63.5C743.5 65 743.5 66.5 743.5 68.5M742.5 61.5C740.084 63.1755 739.605 64.4704 740.5 67.5M757 59.5C756.5 63 758.5 65 758 68.5M774.5 69.5C776.742 70.9183 777.726 71.9282 778.5 74.5M778.5 86.5C777.763 89.9471 776.825 91.4279 774.5 93.5M781.5 90.5L777.5 94.5M740.5 85.5C741.801 88.0019 742.639 89.176 744.5 90.5M767 40H763V43H767V40ZM752 40V43H756V40H752ZM751 77.5C745.5 64 749.5 62.5 758.5 74.5C765.226 65.3526 769 66.5 767.5 76.5C773 72.5 777 76 769.5 81.5C777 87 773 92 763 86C763.5 98.5 760.5 100.5 755.5 85C746 90 742 86 751 77.5ZM755 78C754.868 83.6163 756.64 83.6336 759 81.5C761.187 86.7365 761.548 85.2124 762 81.5C764.012 80.1476 764.987 79.6161 762 80C761.822 75.8093 761.504 73.2915 759 78H755Z" stroke="currentColor"/>
<rect x="836" y="7" width="122" height="131" fill="none" stroke="#C0C0C0" stroke-width="2"/>
<path stroke-width="1.5" d="M910.5 41H917.5V22H876.5V41H883.5M883.5 41V29H910.5V53H937.5V78H924.5V68.5V104H937.5V116H910.5V104H883.5V116H856.5V104H869.5V78M883.5 41V53H856.5V78H869.5M869.5 68.5V78M888 33H894M900 33H906M891.5 37H889.5V40H893.5V37H891.5ZM891.5 37V38.5M902.5 37H900.5V40H904.5V37H902.5ZM902.5 37V38.5M895.5 41.5V44H898.5V41.5M890 48H904M902.143 77.2532C901.03 76.8681 899.645 76.4553 898 76C896.424 81.7391 896.992 83.6229 900.518 82M902.143 77.2532C905.561 78.4363 906.404 79.3572 904.288 80.4433M902.143 77.2532C908.5 69.5 905.063 70.4225 901.5 73C889 65 900.5 73.5 892.5 75C888.067 73.872 891.526 75.3252 895 76.5C893.804 80.7455 894.178 81.7702 897.5 78M904.288 80.4433C903.64 80.7759 902.714 81.1241 901.5 81.5C901.15 81.6928 900.823 81.8595 900.518 82M904.288 80.4433C905 84 904 84.5 900.518 82M910 58.5C912.238 59.2896 913.034 59.9917 914 61.5M913 56.5C914.692 57.3322 915.56 58.009 917 59.5M919 64.5C917.072 68.0283 915.764 69.5252 913 71.5M915.5 84.5C917.068 87.564 916.682 88.7002 915.5 90.5M913 93.5C915.093 95.093 915.964 95.9755 917 97.5M904.288 95.5C907.658 97.7683 908.958 97.6267 910.5 95.5M874 76.5C873.821 83.6339 874.862 86.1162 879 87.5M885 57.5C887.067 55.5418 888.569 54.8505 892 54.5M942 113.5C941.33 117.776 940.17 119.883 935 122.5M858 48.5C853.831 50.8206 852.53 52.7013 851 56.5M872 84.5C872.587 87.06 873.15 88.0951 875 88.5M887.5 83C888.5 105 895.5 104 899 86C906.088 98.0576 916.5 93.5 909.5 81.5C916.941 77.9363 915.858 75.8986 910 73.5C913 61 910.875 59.9358 901.5 68C889 53.5 882.5 57 889.5 71C874.244 81.5181 873.085 84.4332 887.5 83Z" stroke="currentColor"/>
<rect x="974" y="7" width="122" height="131" fill="none" stroke="#C0C0C0" stroke-width="2"/>
<path stroke-width="1.5" d="M1048.5 45.5H1055.5V26.5H1014.5V45.5H1021.5M1021.5 45.5V33.5H1048.5V57.5H1075.5V82.5H1062.5V73V108.5H1075.5V120.5H1048.5V108.5H1021.5V120.5H994.5V108.5H1007.5V82.5M1021.5 45.5V57.5H994.5V82.5H1007.5M1007.5 73V82.5M1057 21C1059.79 22.316 1060.51 23.4927 1061 26M1061 18C1064.06 19.872 1065.03 20.9775 1066 23M990 52C987.592 53.454 986.641 54.6881 986 58M992.5 54C990.748 55.7086 990.245 56.9393 990 59.5M989 119C990.134 123.343 991.32 124.696 994 126M1081 118C1080.96 122.653 1079.95 124.019 1077 125M1080 83C1079.54 85.446 1078.86 86.3006 1077 87M1084 85C1083.44 88.151 1082.62 89.3166 1080 90M1067 61L1057 70M1044 56L1035 61M1047 59L1040 63M1014 68C1016.9 72.9831 1016.82 75.6178 1013.5 80M1009 88C1009.09 90.8927 1009.92 91.5562 1012 92M1014 101C1013.93 105.017 1015.47 105.958 1019 106M1049 103L1055 109M1059 86C1063.2 94.673 1061.87 96.797 1056 98M1023.5 78C1011.5 46 1003.5 46.5 1033 71C1034.5 62 1033 61 1041 67.5C1060.5 57 1053 56.5 1048.5 77.5C1065 78 1062 74 1051.5 85C1058.5 94.5 1060 95 1044.5 92.5C1047 116 1050 114.5 1034.5 96.5C1031 106.5 1032 107.5 1030 97.5C1021 105 1014 99.5 1025.5 87.5C1008.11 88.2104 1008.74 86.0922 1023.5 79M1030.5 81C1026 75.5 1024.5 75.5 1035 78.5C1042.5 71 1039.5 73 1041.5 79.5C1047 82 1048.5 81.5 1040.5 85C1042.79 90.0316 1041.14 90.521 1036.5 87.5C1037.38 94.356 1036.1 93.7033 1032.5 86.5C1027 87 1029 88 1030.5 81.5M1028 52.5H1042M1033.5 46V48.5H1036.5V46M1037 36.5H1044M1033 36.5H1026M1029.5 42V43M1040.5 42V43M1035.5 81C1029.5 83.5 1030 83.3752 1035.5 83.5C1038.32 85.8804 1038.5 86.5 1039 83.5C1041.79 83.9292 1041.5 83.3696 1039 81.5C1039 77.5 1039.5 77.5 1035.5 81ZM1038.5 40.5V44.5H1042.5V40.5H1038.5ZM1027.5 40.5V44.5H1031.5V40.5H1027.5Z" stroke="currentColor"/>
<rect x="1112" y="7" width="122" height="131" fill="none" stroke="#C0C0C0" stroke-width="2"/>
<path stroke-width="1.5" d="M1186.5 43.5H1193.5V24.5H1152.5V43.5H1159.5M1159.5 43.5V31.5H1186.5V55.5H1213.5V80.5H1200.5V71M1159.5 43.5V55.5H1132.5V80.5H1145.5M1200.5 71V106.5H1213.5V118.5H1186.5V106.5H1159.5V118.5H1132.5V106.5H1145.5V80.5M1200.5 71V75.5M1145.5 71V80.5M1167.5 40V41M1178.5 40V41M1171.5 44V46.5H1174.5V44M1166 50.5H1180M1164 32.5H1171M1175 32.5H1182M1170 53C1167.6 53.5419 1166.61 54.1117 1166 56M1152 20C1149.84 22 1149.21 23.3168 1149 26M1148 18C1145.62 20.236 1144.71 21.7498 1144 25M1193 18C1196.78 18.5504 1198.23 19.5165 1199 23M1196 16C1199.31 16.6916 1200.23 17.6819 1201 20M1129.5 61V72M1126.5 64V72M1128 118C1128.64 122.424 1129.76 124.15 1134 125M1125 121C1126 125.353 1127.3 126.891 1131 128M1220.5 60V71M1217.5 61V73M1209 79C1209.62 82.7831 1209.5 84.5994 1208 87M1206.5 85C1206.74 87.9138 1206.12 88.8395 1204.5 90M1193 103C1195.68 102.55 1196.82 101.664 1198 98.5M1195 97C1194.21 98.7811 1193.49 99.0646 1192 99M1200 101C1198.62 103.393 1197.65 104.442 1195 105M1184 110C1181.58 112.283 1179.94 113.109 1176 113M1182 114C1180 115.887 1178.7 116.473 1176 116.5M1152.5 82C1151.8 83.9523 1151.72 85.0479 1152.5 87M1149.5 82C1148.56 83.9521 1148.59 85.0469 1149.5 87M1154 66C1151.65 67.9176 1150.84 69.2711 1150 72M1152 64C1149.72 65.5407 1148.83 66.6275 1148 69M1155.5 98C1156.8 101.965 1159.09 103.008 1167 102M1155 101.5C1157.53 104.615 1160.29 105.029 1166 105M1201 61C1206.56 65.473 1206.31 69.1921 1204 76.5M1202.5 58.5C1208.74 61.7201 1210.23 65.2741 1209.5 74.5M1187 64.5C1217 35.5 1212.5 37.5 1195.5 71.5C1204 80.5 1206 80 1193 79.5C1222 113 1222 106.5 1182.5 90.5C1192.5 109 1190 106 1177.5 93.5C1172 129 1178 132 1165.5 94.5C1116.5 105 1127.5 110 1159.5 85.5C1144.5 76 1148 79 1159.5 68.5C1134.5 45.4997 1131 45.9997 1174.5 64.5C1175.19 60.9038 1175.23 58.2641 1175.26 56.6128L1175.26 56.5M1175.26 56.5C1175.33 52.3381 1175.39 54.8206 1186.5 64.5M1175.26 56.5C1173.49 56.5346 1172.68 56.9113 1171 57.5M1178 56.5C1182.04 56.2755 1183.6 56.5705 1185 58M1168.5 112.5C1169.24 112.968 1169.68 113.201 1171 113M1169.5 79C1162 75 1162 74 1171.5 75.5C1170.5 71 1169.5 70.5 1174.5 72.5M1169.5 79C1162.7 84.5392 1163.16 86.5126 1169.14 86.4837M1169.5 79C1169.5 82.3602 1169.3 84.8519 1169.14 86.4837M1174.5 72.5C1175.88 71.5547 1177.04 70.7681 1178 70.1339M1174.5 72.5C1174.5 68 1175.78 66.1197 1178 70.1339M1178 70.1339C1183.64 66.4072 1182.35 67.9453 1178.5 73.5C1196 72.5 1196 73.5 1183.5 81.5C1185.5 89 1184.5 90 1179.5 85.5C1175.83 86.011 1172.76 86.3521 1170.38 86.4529M1169.14 86.4837C1169.53 86.4818 1169.95 86.4714 1170.38 86.4529M1169.14 86.4837C1168.84 89.6103 1168.68 89.5798 1170.38 86.4529M1170.38 86.4529C1171.23 84.8982 1172.53 82.5781 1174.5 79.5C1182 83 1182 83.5 1178 74M1165.5 38.5V42.5H1169.5V38.5H1165.5ZM1176.5 38.5V42.5H1180.5V38.5H1176.5ZM1173.5 75.5H1174.5V76.5V77.5H1173.5H1172.5V76.5H1173.5V75.5Z" stroke="currentColor"/>
<rect x="8" y="7" width="122" height="131" fill="none" stroke="#C0C0C0" stroke-width="2"/>
<path stroke-width="1.5" d="M82 45H89V26H48V45H55M55 45V33H82V57H109V82H96V72.8467V108H109V120H82V108H55.0309L55 120H28V108H41V82M55 45V57H28V82H41M41 72.824V82M59.5 39H65.5M71.5 39H77.5M77 41.5V45H72V41.5M65 41.5V45H60V41.5M67 46.5V48H70V46.5M61.5 52H75.5M67 79.5C67.3981 81.9176 69.5 83 71.5 80.5" stroke="currentColor"/>
<rect x="146" y="7" width="122" height="131" fill="none" stroke="#C0C0C0" stroke-width="2"/>
<path stroke-width="1.5" d="M221 45H228V26H187V45H194M194 45V33H221V57H248V82H235V72.8467V108H248V120H221V108H194.031L194 120H167V108H180V82M194 45V57H167V82H180M180 72.824V82M198.5 39H204.5M210.5 39H216.5M216 41.5V44M211 41.5V44M204 41.5V44M199 41.5V44M206 46.5V48H209V46.5M200.5 52H214.5M210.5 86.5C212.676 86.6612 213.516 85.927 214.5 83.5M199 44V45H204V44M199 44H204M211 44V45H216V44M211 44H216M207.5 75V76H210V79H211V82H208V81H206V80H205V79H204V78H205H206V75H207.5Z" stroke="currentColor"/>
<rect x="284" y="7" width="122" height="131" fill="none" stroke="#C0C0C0" stroke-width="2"/>
<path stroke-width="1.5" d="M358 45H365V26H324V45H331M331 45V33H358V57H385V82H372V72.8467V108H385V120H358V108H331.031L331 120H304V108H317V82M331 45V57H304V82H317M317 72.824V82M337.5 52H351.5M333.5 83.5C334.29 87.0126 335.314 88.3958 338.5 89.5M347.5 69.5C351.5 67.5 355.5 72.5 355.5 75.5M335.5 39H341.5M347.5 39H353.5M348 43V45H353V43M348 43V41.5M348 43H353M353 41.5V43M349.5 44H351.5M336 41.5V45H341V41.5M340.5 43H336.5M337.5 44H339.5M343 46.5V48H346V46.5M339 85V82.5H340V81H341V79H340V77H341V76H343V75H344V74H345V73H347V74L349 76H350V78L349 79H348L347 80V81V83H346L345 82H344L341 85H339Z" stroke="currentColor"/>
<rect x="422" y="7" width="122" height="131" fill="none" stroke="#C0C0C0" stroke-width="2"/>
<path stroke-width="1.5" d="M497 45H504V26H463V45H470M470 45V33H497V57H524V82H511V72.5V108H524V120H497V108H470V120H443V108H456V82M470 45V57H443V82H456M456 72.5V82M474.5 39H480.5M486.5 39H492.5M482 46.5V48H485V46.5M476.5 52H490.5M476.5 43H478.5M488.5 43H490.5M487.5 67.5C483 68 483 71 480.5 71C478 71 474.5 71 472.5 73.5M492.5 87.5C490.965 90.3817 489.407 91.227 485.5 91.5M481 79C483.227 79.855 484.076 79.5882 485 78M475 42V45H480V42H475ZM487 42H492V45H487V42ZM477 84H479L480 83H482L486 87H489L490 86V83L489 82V81H488V80L489 79L492 77V76H487V73H486V72H484L482 76H480V75H476V77L477 78H478V81L476 83V84H477Z" stroke="currentColor"/>
<rect x="560" y="7" width="122" height="131" fill="none" stroke="#C0C0C0" stroke-width="2"/>
<path stroke-width="1.5" d="M635 45H642V26H601V45H608M608 45V33H635V57H662V82H649V72.5V108H662V120H635V108H608V120H581V108H594V82M608 45V57H581V82H594M594 72.5V82M612.5 39H618.5M624.5 39H630.5M626.5 43H627.5M615.5 43H616.5M620 46.5V48H623V46.5M614.5 52H628.5M620.5 67.5C626.067 65.9519 628.511 66.9477 631.5 72.5M611.5 87.5C613.762 90.5115 615.175 91.6391 618 92.5M610.5 90.5C611.918 93.3087 613.019 94.1689 615.5 94.5M625 41V45H629V41H625ZM618 41V45H614V41H618ZM620.5 73C614.5 64.5 608.5 68.5 614.5 76C607 75 606 85 615 82C614.527 88.3417 615.864 89.7281 621 85C626 92 633 87.5 628 83.5C635 81 635.5 77.5 628 75C626.318 69.4813 624.545 67.8747 620.5 73ZM622 76C620 76 617.927 78.2285 619 80C619 80 620 82.5 622 82C624 81.5 623.709 81.5 624 80C624.291 78.5 624 76 622 76Z" stroke="currentColor"/>
</svg>
 