<svg width="124" height="133" viewBox="0 0 124 133" fill="none" xmlns="http://www.w3.org/2000/svg">
<path stroke-width="1.5" d="M76 39H83V20H42V39H49M49 39V27H76V51H103V76H90V66.5V102H103V114H76V102H49V114H22V102H35V76M49 39V51H22V76H35M35 66.5V76M53.5 33H59.5M65.5 33H71.5M67.5 37H68.5M56.5 37H57.5M61 40.5V42H64V40.5M55.5 46H69.5M61.5 61.5C67.0675 59.9519 69.5112 60.9477 72.5 66.5M52.5 81.5C54.7619 84.5115 56.1754 85.6391 59 86.5M51.5 84.5C52.9177 87.3087 54.0191 88.1689 56.5 88.5M66 35V39H70V35H66ZM59 35V39H55V35H59ZM61.5 67C55.5 58.5 49.5 62.5 55.5 70C48 69 47 79 56 76C55.5271 82.3417 56.8636 83.7281 62 79C67 86 74 81.5 69 77.5C76 75 76.5 71.5 69 69C67.3179 63.4813 65.5447 61.8747 61.5 67ZM63 70C61 70 58.9274 72.2285 60 74C60 74 61 76.5 63 76C65 75.5 64.7093 75.5 65 74C65.2908 72.5 65 70 63 70Z" stroke="currentColor"/>
</svg>
