<svg width="124" height="133" viewBox="0 0 124 133" fill="none" xmlns="http://www.w3.org/2000/svg">
<path stroke-width="1.5" d="M75.5 39.5H82.5V20.5H41.5V39.5H48.5M48.5 39.5V27.5H75.5V51.5H102.5V76.5H89.5V67V102.5H102.5V114.5H75.5V102.5H48.5V114.5H21.5V102.5H34.5V76.5M48.5 39.5V51.5H21.5V76.5H34.5M34.5 67V76.5M84 15C86.79 16.316 87.5082 17.4927 88 20M88 12C91.0626 13.872 92.0269 14.9775 93 17M17 46C14.5921 47.454 13.6412 48.6881 13 52M19.5 48C17.7485 49.7086 17.2446 50.9393 17 53.5M16 113C17.1337 117.343 18.3204 118.696 21 120M108 112C107.958 116.653 106.951 118.019 104 119M107 77C106.535 79.446 105.862 80.3006 104 81M111 79C110.438 82.151 109.623 83.3166 107 84M94 55L84 64M71 50L62 55M74 53L67 57M41 62C43.8969 66.9831 43.8226 69.6178 40.5 74M36 82C36.0906 84.8927 36.92 85.5562 39 86M41 95C40.9267 99.0169 42.4728 99.9584 46 100M76 97L82 103M86 80C90.2011 88.673 88.8656 90.797 83 92M50.5 72C38.5 40 30.5 40.5 60 65C61.5 56 60 55 68 61.5C87.5 51 80 50.5 75.5 71.5C92 72 89 68 78.5 79C85.5 88.5 87 89 71.5 86.5C74 110 77 108.5 61.5 90.5C58 100.5 59 101.5 57 91.5C48 99 41 93.5 52.5 81.5C35.1131 82.2104 35.7416 80.0922 50.5 73M57.5 75C53 69.5 51.5 69.5 62 72.5C69.5 65 66.5 67 68.5 73.5C74 76 75.5 75.5 67.5 79C69.7865 84.0316 68.135 84.521 63.5 81.5C64.3788 88.356 63.0987 87.7033 59.5 80.5C54 81 56 82 57.5 75.5M55 46.5H69M60.5 40V42.5H63.5V40M64 30.5H71M60 30.5H53M56.5 36V37M67.5 36V37M62.5 75C56.5 77.5 57 77.3752 62.5 77.5C65.3236 79.8804 65.5 80.5 66 77.5C68.7859 77.9292 68.5049 77.3696 66 75.5C66 71.5 66.5 71.5 62.5 75ZM65.5 34.5V38.5H69.5V34.5H65.5ZM54.5 34.5V38.5H58.5V34.5H54.5Z" stroke="currentColor"/>
</svg>
