<svg width="124" height="133" viewBox="0 0 124 133" fill="none" xmlns="http://www.w3.org/2000/svg">
<rect x="1" y="1" width="122" height="131" fill="none" stroke="currentColor" stroke-width="2"/>
<path stroke-width="1.5" d="M76 39H83V20H42V39H49M49 39V27H76V51H103V76H90V66.5V102H103V114H76V102H49V114H22V102H35V76M49 39V51H22V76H35M35 66.5V76M53.5 33H59.5M65.5 33H71.5M61 40.5V42H64V40.5M55.5 46H69.5M55.5 37H57.5M67.5 37H69.5M66.5 61.5C62 62 62 65 59.5 65C57 65 53.5 65 51.5 67.5M71.5 81.5C69.9647 84.3817 68.407 85.227 64.5 85.5M60 73C62.227 73.855 63.0764 73.5882 64 72M54 36V39H59V36H54ZM66 36H71V39H66V36ZM56 78H58L59 77H61L65 81H68L69 80V77L68 76V75H67V74L68 73L71 71V70H66V67H65V66H63L61 70H59V69H55V71L56 72H57V75L55 77V78H56Z" stroke="currentColor"/>
</svg>
