<svg width="124" height="133" viewBox="0 0 124 133" fill="none" xmlns="http://www.w3.org/2000/svg">
<rect x="1" y="1" width="122" height="131" fill="none" stroke="currentColor" stroke-width="2"/>
<path stroke-width="1.5" d="M76 38H83V19H42V38H49M49 38V26H76V50H103V75H90V65.5V101H103V113H76V101H49V113H22V101H35V75M49 38V50H22V75H35M35 65.5V75M53.5 31H59.5M65.5 31H71.5M61 38.5V41H64V38.5M57 35.5V36.5M68 35.5V36.5M55.5 45H69.5M48.5 57.5C46.5 59 46.5 60.5 46.5 62.5M45.5 55.5C43.0843 57.1755 42.6046 58.4704 43.5 61.5M60 53.5C59.5 57 61.5 59 61 62.5M77.5 63.5C79.7415 64.9183 80.726 65.9282 81.5 68.5M81.5 80.5C80.7628 83.9471 79.8249 85.4279 77.5 87.5M84.5 84.5L80.5 88.5M43.5 79.5C44.8012 82.0019 45.6394 83.176 47.5 84.5M70 34H66V37H70V34ZM55 34V37H59V34H55ZM54 71.5C48.5 58 52.5 56.5 61.5 68.5C68.2259 59.3526 72 60.5 70.5 70.5C76 66.5 80 70 72.5 75.5C80 81 76 86 66 80C66.5 92.5 63.5 94.5 58.5 79C49 84 45 80 54 71.5ZM58 72C57.8682 77.6163 59.6405 77.6336 62 75.5C64.1865 80.7365 64.5479 79.2124 65 75.5C67.0117 74.1476 67.9871 73.6161 65 74C64.8215 69.8093 64.504 67.2915 62 72H58Z" stroke="currentColor"/>
</svg>
