<svg width="124" height="133" viewBox="0 0 124 133" fill="none" xmlns="http://www.w3.org/2000/svg">
<rect x="1" y="1" width="122" height="131" fill="none" stroke="currentColor" stroke-width="2"/>
<path stroke-width="1.5" d="M75 39H82V20H41V39H48M48 39V27H75V51H102V76H89V66.8467V102H102V114H75V102H48.0309L48 114H21V102H34V76M48 39V51H21V76H34M34 66.824V76M52.5 33H58.5M64.5 33H70.5M70 35.5V39H65V35.5M58 35.5V39H53V35.5M60 40.5V42H63V40.5M54.5 46H68.5M60 73.5C60.3981 75.9176 62.5 77 64.5 74.5" stroke="currentColor"/>
</svg>
